<svg xmlns="http://www.w3.org/2000/svg" xmlns:xlink="http://www.w3.org/1999/xlink" version="1.1" x="0px" y="0px" viewBox="0 0 100 125" enable-background="new 0 0 100 100" xml:space="preserve"><g><path d="M70.582,1H29.42C13.549,1,1,13.549,1,29.418v41.164C1,86.451,13.549,99,29.42,99h41.162C86.451,99,99,86.451,99,70.582   V29.418C99,13.549,86.451,1,70.582,1z M63.683,49.949l-4.049,7.205l-2.881-2.881L63.683,49.949z M69.957,63.713L62,65.945v-4.076   L69.957,63.713z M49.806,44.043L52.038,52h-4.076L49.806,44.043z M50.001,55.355c4.721,0,8.549,3.828,8.549,8.551   c0,0.818-0.115,1.611-0.33,2.359l-16.404,0.127c-0.238-0.785-0.367-1.621-0.365-2.486C41.45,59.184,45.278,55.355,50.001,55.355z    M43.247,54.271l-2.881,2.883l-4.324-6.93L43.247,54.271z M38,61.869v4.076l-7.957-1.844L38,61.869z M69.148,96H30.854   C16.09,96,4.01,84,4.01,69h91.98C95.99,84,83.91,96,69.148,96z"/></g><text x="0" y="115" fill="#000000" font-size="5px" font-weight="bold" font-family="'Helvetica Neue', Helvetica, Arial-Unicode, Arial, Sans-serif">Created by Nicole Portantiere</text><text x="0" y="120" fill="#000000" font-size="5px" font-weight="bold" font-family="'Helvetica Neue', Helvetica, Arial-Unicode, Arial, Sans-serif">from the Noun Project</text></svg>