<svg xmlns="http://www.w3.org/2000/svg" viewBox="0 0 84 113"><defs><style>.cls-1{fill:#b6b9a4;}.cls-2{fill:#97998c;}.cls-3{fill:#0f0d00;}.cls-4{fill:#b0b39e;}.cls-5{fill:#c8cbb6;}.cls-6{fill:#babea3;}.cls-7{fill:#a9ad92;}.cls-8{fill:#b1b09b;}.cls-9{fill:#78798d;}</style></defs><title>Asset 2</title><g id="Layer_2" data-name="Layer 2"><g id="Layer_1-2" data-name="Layer 1"><path class="cls-1" d="M4,97H80a2,2,0,0,1,2,2v12a2,2,0,0,1-2,2H4a2,2,0,0,1-2-2V99a2,2,0,0,1,2-2"/><path class="cls-2" d="M70,105h3.5a.5.5,0,0,1,.5.5v5a.5.5,0,0,1-.5.5h-4a.5.5,0,0,1-.5-.5v-5a.5.5,0,0,1,.5-.5"/><path class="cls-3" d="M71,106h1.5a.5.5,0,0,1,.5.5v3a.5.5,0,0,1-.5.5h-2a.5.5,0,0,1-.5-.5v-3a.5.5,0,0,1,.5-.5"/><path class="cls-4" d="M2,0H82a2,2,0,0,1,2,2v99a2,2,0,0,1-2,2H2a2,2,0,0,1-2-2V2A2,2,0,0,1,2,0"/><path class="cls-5" d="M3,5H81a1,1,0,0,1,1,1V98a1,1,0,0,1-1,1H3a1,1,0,0,1-1-1V6A1,1,0,0,1,3,5"/><path class="cls-6" d="M64,79H76.5a.5.5,0,0,1,.5.5v7a.5.5,0,0,1-.5.5h-13a.5.5,0,0,1-.5-.5v-7a.5.5,0,0,1,.5-.5"/><path class="cls-6" d="M41,81H71.5a.5.5,0,0,1,.5.5v3a.5.5,0,0,1-.5.5h-31a.5.5,0,0,1-.5-.5v-3a.5.5,0,0,1,.5-.5"/><path d="M76.3,85a.3.3,0,0,0-.6,0h0a.3.3,0,0,0,.6,0h0"/><path class="cls-7" d="M66,80h8.5a.5.5,0,0,1,.5.5v5a.5.5,0,0,1-.5.5h-9a.5.5,0,0,1-.5-.5v-5a.5.5,0,0,1,.5-.5"/><path class="cls-3" d="M43,82H73.5a.5.5,0,0,1,.5.5v1a.5.5,0,0,1-.5.5h-31a.5.5,0,0,1-.5-.5v-1a.5.5,0,0,1,.5-.5"/><path class="cls-3" d="M66,81h8.5a.5.5,0,0,1,.5.5v3a.5.5,0,0,1-.5.5h-9a.5.5,0,0,1-.5-.5v-3a.5.5,0,0,1,.5-.5"/><path class="cls-8" d="M9,11H75a2,2,0,0,1,2,2V64a2,2,0,0,1-2,2H9a2,2,0,0,1-2-2V13a2,2,0,0,1,2-2"/><path class="cls-9" d="M13,14c14-2,44-2,58,0,1,0,3,2,3,3,1,10,1,33,0,43,0,1-2,3-3,3-14,2-44,2-58,0-1,0-3-2-3-3C9,50,9,27,10,17c0-1,2-3,3-3"/></g></g></svg>