<?xml version="1.0" encoding="utf-8"?>
<!-- Generator: Adobe Illustrator 20.1.0, SVG Export Plug-In . SVG Version: 6.00 Build 0)  -->
<svg version="1.1" id="Layer_1" xmlns="http://www.w3.org/2000/svg" xmlns:xlink="http://www.w3.org/1999/xlink" x="0px" y="0px"
	 viewBox="0 0 100 100" style="enable-background:new 0 0 100 100;" xml:space="preserve">
<g>
	<path d="M92.5,66.2H77.8C78,65,78,63.8,78,62.7c0-15.3-12.5-27.8-27.8-27.8S22.4,47.5,22.4,62.7c0,1.2,0.1,2.3,0.2,3.5H7.5
		c-0.6,0-1.2,0.5-1.2,1.2c0,0.6,0.5,1.2,1.2,1.2h85c0.6,0,1.2-0.5,1.2-1.2S93.2,66.2,92.5,66.2z M25,66.2c-0.2-1.2-0.2-2.4-0.2-3.5
		c0-14.1,11.4-25.5,25.5-25.5c14,0,25.5,11.4,25.5,25.5c0,1.2-0.1,2.3-0.2,3.5H25z"/>
	<path d="M84.5,73H14.8c-0.6,0-1.2,0.5-1.2,1.2c0,0.6,0.5,1.2,1.2,1.2h69.7c0.6,0,1.2-0.5,1.2-1.2C85.6,73.5,85.1,73,84.5,73z"/>
	<path d="M72.3,80H27.8c-0.6,0-1.2,0.5-1.2,1.2c0,0.6,0.5,1.2,1.2,1.2h44.5c0.6,0,1.2-0.5,1.2-1.2C73.4,80.5,72.9,80,72.3,80z"/>
	<path d="M50,31.8c0.6,0,1.2-0.5,1.2-1.2V18.7c0-0.6-0.5-1.2-1.2-1.2s-1.2,0.5-1.2,1.2v11.9C48.9,31.3,49.4,31.8,50,31.8z"/>
	<path d="M94.2,58.2H83.9c-0.6,0-1.2,0.5-1.2,1.2s0.5,1.2,1.2,1.2h10.3c0.6,0,1.2-0.5,1.2-1.2S94.8,58.2,94.2,58.2z"/>
	<path d="M17.3,59.4c0-0.6-0.5-1.2-1.2-1.2H5.8c-0.6,0-1.2,0.5-1.2,1.2s0.5,1.2,1.2,1.2h10.3C16.8,60.5,17.3,60,17.3,59.4z"/>
	<path d="M73.5,41c0.3,0,0.6-0.1,0.8-0.3l8.4-8.4c0.5-0.5,0.5-1.2,0-1.6c-0.5-0.5-1.2-0.5-1.6,0l-8.4,8.4c-0.5,0.5-0.5,1.2,0,1.6
		C72.9,40.9,73.2,41,73.5,41z"/>
	<path d="M26.1,40.7c0.2,0.2,0.5,0.3,0.8,0.3s0.6-0.1,0.8-0.3c0.5-0.5,0.5-1.2,0-1.6l-8.4-8.4c-0.5-0.5-1.2-0.5-1.6,0
		c-0.5,0.5-0.5,1.2,0,1.6L26.1,40.7z"/>
	<path d="M36.8,33.3c0.2,0.4,0.6,0.6,1,0.6c0.2,0,0.4,0,0.5-0.1c0.6-0.3,0.8-1,0.5-1.6L35.1,25c-0.3-0.6-1-0.8-1.6-0.5
		s-0.8,1-0.5,1.6L36.8,33.3z"/>
	<path d="M62,33.8c0.2,0.1,0.3,0.1,0.5,0.1c0.4,0,0.8-0.2,1-0.6l3.7-7.2c0.3-0.6,0.1-1.3-0.5-1.6s-1.3-0.1-1.6,0.5l-3.7,7.2
		C61.2,32.8,61.4,33.5,62,33.8z"/>
	<path d="M79.7,49.8c0.2,0.5,0.6,0.8,1.1,0.8c0.1,0,0.3,0,0.4-0.1l7.7-2.8c0.6-0.2,0.9-0.9,0.7-1.5c-0.2-0.6-0.9-0.9-1.5-0.7
		l-7.7,2.8C79.8,48.6,79.4,49.2,79.7,49.8z"/>
	<path d="M11.6,47.8l7.7,2.8c0.1,0,0.3,0.1,0.4,0.1c0.5,0,0.9-0.3,1.1-0.8c0.2-0.6-0.1-1.3-0.7-1.5l-7.7-2.8
		c-0.6-0.2-1.3,0.1-1.5,0.7C10.7,46.9,11,47.6,11.6,47.8z"/>
</g>
</svg>
