<?xml version="1.0" encoding="utf-8"?>
<!-- Generator: Adobe Illustrator 19.1.0, SVG Export Plug-In . SVG Version: 6.00 Build 0)  -->
<svg version="1.1" id="Layer_1" xmlns="http://www.w3.org/2000/svg" xmlns:xlink="http://www.w3.org/1999/xlink" x="0px" y="0px"
	 viewBox="-428 219 98 98" style="enable-background:new -428 219 98 98;" xml:space="preserve">
<g>
	<path d="M-358.4,219h-41.2c-15.9,0-28.4,12.5-28.4,28.4v41.2c0,15.9,12.5,28.4,28.4,28.4h41.2c15.9,0,28.4-12.5,28.4-28.4v-41.2
		C-330,231.5-342.5,219-358.4,219z M-365.3,267.9l-4,7.2l-2.9-2.9L-365.3,267.9z M-359,281.7l-8,2.2v-4.1L-359,281.7z M-379.2,262
		l2.2,8h-4.1L-379.2,262z M-379,273.4c4.7,0,8.5,3.8,8.5,8.6c0,0.8-0.1,1.6-0.3,2.4l-16.4,0.1c-0.2-0.8-0.4-1.6-0.4-2.5
		C-387.5,277.2-383.7,273.4-379,273.4z M-385.8,272.3l-2.9,2.9l-4.3-6.9L-385.8,272.3z M-391,279.9v4.1l-8-1.8L-391,279.9z
		 M-359.9,314h-38.3c-14.8,0-26.8-12-26.8-27h92C-333,302-345.1,314-359.9,314z"/>
</g>
</svg>
