<?xml version="1.0" encoding="utf-8"?>
<!-- Generator: Adobe Illustrator 19.1.0, SVG Export Plug-In . SVG Version: 6.00 Build 0)  -->
<svg version="1.1" id="Layer_1" xmlns="http://www.w3.org/2000/svg" xmlns:xlink="http://www.w3.org/1999/xlink" x="0px" y="0px"
	 viewBox="-429 218 100 100" style="enable-background:new -429 218 100 100;" xml:space="preserve">
<g>
	<path d="M-336.6,283.7h-14.7c0.2-1.2,0.2-2.4,0.2-3.5c0-15.3-12.5-27.8-27.8-27.8s-27.8,12.5-27.8,27.8c0,1.2,0.1,2.3,0.2,3.5
		h-15.1c-0.6,0-1.2,0.5-1.2,1.2c0,0.6,0.5,1.2,1.2,1.2h85c0.6,0,1.2-0.5,1.2-1.2S-335.9,283.7-336.6,283.7z M-404.1,283.7
		c-0.2-1.2-0.2-2.4-0.2-3.5c0-14.1,11.4-25.5,25.5-25.5c14,0,25.5,11.4,25.5,25.5c0,1.2-0.1,2.3-0.2,3.5H-404.1z"/>
	<path d="M-344.6,290.5h-69.7c-0.6,0-1.2,0.5-1.2,1.2c0,0.6,0.5,1.2,1.2,1.2h69.7c0.6,0,1.2-0.5,1.2-1.2
		C-343.5,291-344,290.5-344.6,290.5z"/>
	<path d="M-356.8,297.5h-44.5c-0.6,0-1.2,0.5-1.2,1.2c0,0.6,0.5,1.2,1.2,1.2h44.5c0.6,0,1.2-0.5,1.2-1.2
		C-355.7,298-356.2,297.5-356.8,297.5z"/>
	<path d="M-379.1,249.3c0.6,0,1.2-0.5,1.2-1.2v-11.9c0-0.6-0.5-1.2-1.2-1.2s-1.2,0.5-1.2,1.2v11.9
		C-380.2,248.8-379.7,249.3-379.1,249.3z"/>
	<path d="M-334.9,275.7h-10.3c-0.6,0-1.2,0.5-1.2,1.2s0.5,1.2,1.2,1.2h10.3c0.6,0,1.2-0.5,1.2-1.2S-334.3,275.7-334.9,275.7z"/>
	<path d="M-411.8,276.9c0-0.6-0.5-1.2-1.2-1.2h-10.3c-0.6,0-1.2,0.5-1.2,1.2s0.5,1.2,1.2,1.2h10.3
		C-412.3,278-411.8,277.5-411.8,276.9z"/>
	<path d="M-355.6,258.5c0.3,0,0.6-0.1,0.8-0.3l8.4-8.4c0.5-0.5,0.5-1.2,0-1.6c-0.5-0.5-1.2-0.5-1.6,0l-8.4,8.4
		c-0.5,0.5-0.5,1.2,0,1.6C-356.2,258.4-355.9,258.5-355.6,258.5z"/>
	<path d="M-403,258.2c0.2,0.2,0.5,0.3,0.8,0.3c0.3,0,0.6-0.1,0.8-0.3c0.5-0.5,0.5-1.2,0-1.6l-8.4-8.4c-0.5-0.5-1.2-0.5-1.6,0
		c-0.5,0.5-0.5,1.2,0,1.6L-403,258.2z"/>
	<path d="M-392.3,250.8c0.2,0.4,0.6,0.6,1,0.6c0.2,0,0.4,0,0.5-0.1c0.6-0.3,0.8-1,0.5-1.6l-3.7-7.2c-0.3-0.6-1-0.8-1.6-0.5
		c-0.6,0.3-0.8,1-0.5,1.6L-392.3,250.8z"/>
	<path d="M-367.1,251.3c0.2,0.1,0.3,0.1,0.5,0.1c0.4,0,0.8-0.2,1-0.6l3.7-7.2c0.3-0.6,0.1-1.3-0.5-1.6c-0.6-0.3-1.3-0.1-1.6,0.5
		l-3.7,7.2C-367.9,250.3-367.7,251-367.1,251.3z"/>
	<path d="M-349.4,267.3c0.2,0.5,0.6,0.8,1.1,0.8c0.1,0,0.3,0,0.4-0.1l7.7-2.8c0.6-0.2,0.9-0.9,0.7-1.5c-0.2-0.6-0.9-0.9-1.5-0.7
		l-7.7,2.8C-349.3,266.1-349.7,266.7-349.4,267.3z"/>
	<path d="M-417.5,265.3l7.7,2.8c0.1,0,0.3,0.1,0.4,0.1c0.5,0,0.9-0.3,1.1-0.8c0.2-0.6-0.1-1.3-0.7-1.5l-7.7-2.8
		c-0.6-0.2-1.3,0.1-1.5,0.7C-418.4,264.4-418.1,265.1-417.5,265.3z"/>
</g>
</svg>
